<svg xmlns="http://www.w3.org/2000/svg" xmlns:xlink="http://www.w3.org/1999/xlink" version="1.1" width="1000" height="1000" viewBox="0 0 1000 1000" xml:space="preserve">
<desc>Created with Fabric.js 3.5.0</desc>
<defs>
</defs>
<rect x="0" y="0" width="100%" height="100%" fill="#ffffff"/>
<g transform="matrix(0.1 0 0 0.1 25.1085 25.1085)" id="548314">
<g style="" vector-effect="non-scaling-stroke">
		<g transform="matrix(1.3333 0 0 1.3333 -0.0075 -0.0075)">
<rect style="stroke: none; stroke-width: 1; stroke-dasharray: none; stroke-linecap: butt; stroke-dashoffset: 0; stroke-linejoin: miter; stroke-miterlimit: 4; is-custom-font: none; font-file-url: none; fill: rgb(255,255,255); fill-rule: nonzero; opacity: 1;" x="-225" y="-225" rx="0" ry="0" width="450" height="450"/>
</g>
		<g transform="matrix(1.3333 0 0 1.3333 -0.0075 -0.0075)">
<rect style="stroke: none; stroke-width: 1; stroke-dasharray: none; stroke-linecap: butt; stroke-dashoffset: 0; stroke-linejoin: miter; stroke-miterlimit: 4; is-custom-font: none; font-file-url: none; fill: rgb(255,255,255); fill-rule: nonzero; opacity: 1;" x="-225" y="-225" rx="0" ry="0" width="450" height="450"/>
</g>
		<g transform="matrix(1.3333 0 0 1.3333 -0.0075 -0.0075)">
<rect style="stroke: none; stroke-width: 1; stroke-dasharray: none; stroke-linecap: butt; stroke-dashoffset: 0; stroke-linejoin: miter; stroke-miterlimit: 4; is-custom-font: none; font-file-url: none; fill: rgb(255,255,255); fill-rule: nonzero; opacity: 1;" x="-225" y="-225" rx="0" ry="0" width="450" height="450"/>
</g>
		<g transform="matrix(1.3333 0 0 1.3333 -0.0075 -0.0075)">
<rect style="stroke: none; stroke-width: 1; stroke-dasharray: none; stroke-linecap: butt; stroke-dashoffset: 0; stroke-linejoin: miter; stroke-miterlimit: 4; is-custom-font: none; font-file-url: none; fill: rgb(255,255,255); fill-rule: nonzero; opacity: 1;" x="-225" y="-225" rx="0" ry="0" width="450" height="450"/>
</g>
		<g transform="matrix(1.3333 0 0 1.3333 75.1466 -11.5885)" clip-path="url(#CLIPPATH_8)">
<clipPath id="CLIPPATH_8">
	<path transform="matrix(1 0 0 1 -0.1465 -0.1621) translate(-243.7148, -178.6484)" id="id1" d="M 189 102 L 298.429688 102 L 298.429688 255.296875 L 189 255.296875 Z M 189 102" stroke-linecap="round"/>
</clipPath>
<path style="stroke: none; stroke-width: 1; stroke-dasharray: none; stroke-linecap: butt; stroke-dashoffset: 0; stroke-linejoin: miter; stroke-miterlimit: 4; is-custom-font: none; font-file-url: none; fill: rgb(213,45,93); fill-rule: nonzero; opacity: 1;" transform=" translate(-243.8613, -178.8105)" d="M 285.835938 102.347656 C 285.835938 105.554688 285.835938 108.769531 285.835938 111.980469 C 286.921875 112.3125 287.996094 112.660156 289.070312 113.015625 C 289.070312 156.058594 289.070312 199.097656 289.070312 242.144531 C 272.152344 236.488281 254.425781 234.097656 236.824219 234.964844 C 220.664062 238.289062 204.515625 245.121094 189.292969 255.273438 C 224.234375 240.8125 263.488281 240.8125 298.429688 255.273438 C 298.429688 205.804688 298.429688 156.339844 298.429688 106.875 C 294.292969 105.160156 290.089844 103.652344 285.835938 102.347656" stroke-linecap="round"/>
</g>
		<g transform="matrix(1.3333 0 0 1.3333 58.5898 -32.9862)" clip-path="url(#CLIPPATH_9)">
<clipPath id="CLIPPATH_9">
	<path transform="matrix(1 0 0 1 0.0566 -0.1143) translate(-231.5, -162.6484)" id="id2" d="M 189 70 L 274 70 L 274 255.296875 L 189 255.296875 Z M 189 70" stroke-linecap="round"/>
</clipPath>
<path style="stroke: none; stroke-width: 1; stroke-dasharray: none; stroke-linecap: butt; stroke-dashoffset: 0; stroke-linejoin: miter; stroke-miterlimit: 4; is-custom-font: none; font-file-url: none; fill: rgb(213,45,93); fill-rule: nonzero; opacity: 1;" transform=" translate(-231.4434, -162.7627)" d="M 196.523438 239.035156 C 219.183594 219.496094 243.703125 208.953125 266.363281 209.011719 C 266.363281 165.972656 266.363281 122.929688 266.363281 79.890625 C 243.703125 79.832031 219.183594 90.367188 196.523438 109.910156 C 196.523438 152.953125 196.523438 195.992188 196.523438 239.035156 Z M 273.59375 219.035156 C 246.609375 216.179688 216.285156 229.214844 189.292969 255.273438 C 189.292969 205.804688 189.292969 156.339844 189.292969 106.875 C 216.285156 80.820312 246.609375 67.777344 273.59375 70.640625 C 273.59375 120.105469 273.59375 169.570312 273.59375 219.035156" stroke-linecap="round"/>
</g>
		<g transform="matrix(1.3333 0 0 1.3333 66.751 -23.0341)" clip-path="url(#CLIPPATH_10)">
<clipPath id="CLIPPATH_10">
	<path transform="matrix(1 0 0 1 -0.0645 -0.0782) translate(-237.5, -170.1484)" id="id3" d="M 189 85 L 286 85 L 286 255.296875 L 189 255.296875 Z M 189 85" stroke-linecap="round"/>
</clipPath>
<path style="stroke: none; stroke-width: 1; stroke-dasharray: none; stroke-linecap: butt; stroke-dashoffset: 0; stroke-linejoin: miter; stroke-miterlimit: 4; is-custom-font: none; font-file-url: none; fill: rgb(213,45,93); fill-rule: nonzero; opacity: 1;" transform=" translate(-237.5645, -170.2266)" d="M 273.59375 85.179688 C 273.59375 88.390625 273.59375 91.601562 273.59375 94.808594 C 274.921875 94.996094 276.246094 95.207031 277.558594 95.4375 C 277.558594 138.476562 277.558594 181.523438 277.558594 224.5625 C 262.167969 221.816406 246.015625 222.667969 230.007812 226.941406 C 216.164062 233.125 202.339844 242.675781 189.292969 255.273438 C 220.207031 234.65625 254.933594 227.742188 285.835938 236.042969 C 285.835938 186.578125 285.835938 137.113281 285.835938 87.648438 C 281.816406 86.566406 277.726562 85.746094 273.59375 85.179688" stroke-linecap="round"/>
</g>
		<g transform="matrix(1.3333 0 0 1.3333 -76.3326 -11.5885)" clip-path="url(#CLIPPATH_11)">
<clipPath id="CLIPPATH_11">
	<path transform="matrix(1 0 0 1 0.0879 -0.1621) translate(-130.3398, -178.6484)" id="id4" d="M 75.679688 102 L 185 102 L 185 255.296875 L 75.679688 255.296875 Z M 75.679688 102" stroke-linecap="round"/>
</clipPath>
<path style="stroke: none; stroke-width: 1; stroke-dasharray: none; stroke-linecap: butt; stroke-dashoffset: 0; stroke-linejoin: miter; stroke-miterlimit: 4; is-custom-font: none; font-file-url: none; fill: rgb(213,45,93); fill-rule: nonzero; opacity: 1;" transform=" translate(-130.252, -178.8105)" d="M 88.273438 102.347656 C 88.273438 105.554688 88.273438 108.769531 88.273438 111.980469 C 87.195312 112.3125 86.121094 112.660156 85.046875 113.015625 C 85.046875 156.058594 85.046875 199.097656 85.046875 242.144531 C 101.96875 236.488281 119.695312 234.097656 137.292969 234.964844 C 153.449219 238.289062 169.597656 245.121094 184.820312 255.273438 C 149.878906 240.8125 110.625 240.8125 75.683594 255.273438 C 75.683594 205.804688 75.683594 156.339844 75.683594 106.875 C 79.828125 105.160156 84.03125 103.652344 88.273438 102.347656" stroke-linecap="round"/>
</g>
		<g transform="matrix(1.3333 0 0 1.3333 -59.7722 -32.9862)" clip-path="url(#CLIPPATH_12)">
<clipPath id="CLIPPATH_12">
	<path transform="matrix(1 0 0 1 -0.1719 -0.1143) translate(-142.5, -162.6484)" id="id5" d="M 100 70 L 185 70 L 185 255.296875 L 100 255.296875 Z M 100 70" stroke-linecap="round"/>
</clipPath>
<path style="stroke: none; stroke-width: 1; stroke-dasharray: none; stroke-linecap: butt; stroke-dashoffset: 0; stroke-linejoin: miter; stroke-miterlimit: 4; is-custom-font: none; font-file-url: none; fill: rgb(213,45,93); fill-rule: nonzero; opacity: 1;" transform=" translate(-142.6719, -162.7627)" d="M 177.589844 109.910156 C 154.929688 90.367188 130.40625 79.832031 107.753906 79.890625 C 107.753906 122.929688 107.753906 165.972656 107.753906 209.011719 C 130.40625 208.953125 154.929688 219.496094 177.589844 239.035156 C 177.589844 195.992188 177.589844 152.953125 177.589844 109.910156 Z M 100.523438 70.640625 C 127.511719 67.777344 157.832031 80.820312 184.820312 106.875 C 184.820312 156.339844 184.820312 205.804688 184.820312 255.273438 C 157.832031 229.214844 127.511719 216.179688 100.523438 219.035156 C 100.523438 169.570312 100.523438 120.105469 100.523438 70.640625" stroke-linecap="round"/>
</g>
		<g transform="matrix(1.3333 0 0 1.3333 -67.9391 -23.0341)" clip-path="url(#CLIPPATH_13)">
<clipPath id="CLIPPATH_13">
	<path transform="matrix(1 0 0 1 -0.0469 -0.0782) translate(-136.5, -170.1484)" id="id6" d="M 88 85 L 185 85 L 185 255.296875 L 88 255.296875 Z M 88 85" stroke-linecap="round"/>
</clipPath>
<path style="stroke: none; stroke-width: 1; stroke-dasharray: none; stroke-linecap: butt; stroke-dashoffset: 0; stroke-linejoin: miter; stroke-miterlimit: 4; is-custom-font: none; font-file-url: none; fill: rgb(213,45,93); fill-rule: nonzero; opacity: 1;" transform=" translate(-136.5469, -170.2266)" d="M 100.523438 85.179688 C 100.523438 88.390625 100.523438 91.601562 100.523438 94.808594 C 99.195312 94.996094 97.867188 95.207031 96.554688 95.4375 C 96.554688 138.476562 96.554688 181.523438 96.554688 224.5625 C 111.949219 221.816406 128.101562 222.667969 144.105469 226.941406 C 157.953125 233.125 171.777344 242.675781 184.820312 255.273438 C 153.910156 234.65625 119.183594 227.742188 88.273438 236.042969 C 88.273438 186.578125 88.273438 137.113281 88.273438 87.648438 C 92.296875 86.566406 96.386719 85.746094 100.523438 85.179688" stroke-linecap="round"/>
</g>
</g>
</g>
</svg>